<svg xmlns="http://www.w3.org/2000/svg" fill="none" viewBox="0 0 24 24">
    <path fill="currentColor" d="M7 .75A6.257 6.257 0 0 0 .75 7v10A6.257 6.257 0 0 0 7 23.25h10A6.257 6.257 0 0 0 23.25 17V7A6.257 6.257 0 0 0 17 .75H7Zm0 2.5h10A3.755 3.755 0 0 1 20.75 7v10A3.755 3.755 0 0 1 17 20.75H7A3.755 3.755 0 0 1 3.25 17V7A3.755 3.755 0 0 1 7 3.25ZM18.25 4.5a1.25 1.25 0 1 0 0 2.5 1.25 1.25 0 0 0 0-2.5ZM12 5.75A6.257 6.257 0 0 0 5.75 12 6.257 6.257 0 0 0 12 18.25 6.257 6.257 0 0 0 18.25 12 6.257 6.257 0 0 0 12 5.75Zm0 2.5A3.755 3.755 0 0 1 15.75 12 3.755 3.755 0 0 1 12 15.75 3.755 3.755 0 0 1 8.25 12 3.755 3.755 0 0 1 12 8.25Z"/>
</svg>