<svg xmlns="http://www.w3.org/2000/svg" fill="none" viewBox="0 0 26 26">
    <path fill="currentColor" d="M13 .5C6.125.5.5 6.125.5 13S6.125 25.5 13 25.5 25.5 19.875 25.5 13 19.875.5 13 .5Zm5.071 18.008c-.235 0-.352-.118-.587-.235-1.764-1.06-3.998-1.647-6.349-1.647-1.294 0-2.704.235-3.88.47-.235 0-.47.118-.587.118a.803.803 0 0 1-.823-.823c0-.47.235-.822.705-.822 1.529-.353 3.058-.588 4.704-.588 2.704 0 5.173.705 7.29 1.882.235.235.47.352.47.822-.238.588-.59.823-.943.823Zm1.293-3.292c-.235 0-.47-.117-.705-.235-1.999-1.293-4.821-1.998-7.878-1.998-1.529 0-2.94.234-3.997.47-.235.117-.353.117-.588.117-.587 0-.941-.47-.941-.941 0-.588.235-.823.822-1.059 1.412-.353 2.823-.705 4.822-.705 3.292 0 6.348.822 8.936 2.351.352.235.587.588.587.942-.117.587-.47 1.058-1.058 1.058Zm1.528-3.763c-.235 0-.352-.118-.704-.236-2.352-1.293-5.762-2.116-9.054-2.116-1.646 0-3.41.235-4.939.588-.235 0-.353.117-.705.117-.705.119-1.176-.47-1.176-1.175 0-.705.352-1.059.822-1.176 1.883-.47 3.881-.705 5.998-.705 3.645 0 7.407.822 10.347 2.351.353.235.705.588.705 1.176-.117.706-.588 1.176-1.294 1.176Z"/>
</svg>