<svg xmlns="http://www.w3.org/2000/svg" viewBox="0 0 20 18">
    <path fill="currentColor" d="M19.89 2.919a.425.425 0 0 0-.51-.09 3.7 3.7 0 0 1-.543.196c.3-.398.54-.844.646-1.245a.426.426 0 0 0-.655-.458c-.23.161-1.344.644-2.048.801C15.19.73 13.34.585 11.414 1.71 9.85 2.622 9.51 4.479 9.576 5.61 5.996 5.266 3.77 3.375 2.517 1.81a.435.435 0 0 0-.361-.16.429.429 0 0 0-.337.208c-.593 1-.757 2.106-.474 3.198.155.596.426 1.12.74 1.546-.154-.076-.3-.169-.433-.277a.426.426 0 0 0-.694.33c0 1.875 1.173 3.126 2.268 3.78a3.177 3.177 0 0 1-.548-.118.425.425 0 0 0-.512.582c.615 1.361 1.781 2.297 3.224 2.637-1.26.74-2.946 1.102-4.49.924a.425.425 0 0 0-.258.793c2.343 1.315 4.46 1.785 6.29 1.785 2.663 0 4.718-.994 5.97-1.826 3.372-2.238 5.474-6.257 5.181-9.852.54-.4 1.35-1.137 1.85-1.929a.42.42 0 0 0-.044-.512Z"/>
</svg>